# xmcd CD database file
#
# Track frame offsets:
#	150
#	37101
#	72519
#	123663
#	136288
#	156989
#	180801
#	194081
#	211093
#	226380
#	246600
#
# Disc length: 3686 seconds
#
# Revision: 0
# Processed by: cddbd v1.5.2PL0 Copyright (c) Steve Scherf et al.
# Submitted via: CDex 1.70beta2
#
DISCID=a70e640b
DTITLE=Gaël Horellou - Explorations
DYEAR=2006
DGENRE=Jazz
TTITLE0=Explorations jazz step
TTITLE1=Samadhi
TTITLE2=Silence
TTITLE3=Joy Song
TTITLE4=Quantum
TTITLE5=Water City
TTITLE6=The Bridge - part 1
TTITLE7=The Bridge - part 2
TTITLE8=Human Specie
TTITLE9=Espace
TTITLE10=Cosmos
EXTD=YEAR: 2006
EXTT0=
EXTT1=
EXTT2=
EXTT3=
EXTT4=
EXTT5=
EXTT6=
EXTT7=
EXTT8=
EXTT9=
EXTT10=
PLAYORDER=
